<svg width="117" height="119" viewBox="0 0 117 119" fill="none" xmlns="http://www.w3.org/2000/svg">
<path d="M52.4501 68.7236H22.1207C21.5293 68.7236 20.962 68.4867 20.5438 68.0649C20.1256 67.6431 19.8906 67.071 19.8906 66.4745V35.8859C19.8906 35.2894 20.1256 34.7173 20.5438 34.2955C20.962 33.8737 21.5293 33.6367 22.1207 33.6367H52.4501C53.0415 33.6367 53.6088 33.8737 54.027 34.2955C54.4452 34.7173 54.6802 35.2894 54.6802 35.8859V66.4745C54.6802 67.071 54.4452 67.6431 54.027 68.0649C53.6088 68.4867 53.0415 68.7236 52.4501 68.7236ZM24.2795 64.2253H50.22V38.135H24.2795V64.2253Z" fill="#A8BAA2"/>
<path d="M52.4501 99.3096H22.1207C21.5293 99.3096 20.962 99.0726 20.5438 98.6508C20.1256 98.229 19.8906 97.6569 19.8906 97.0604V66.4718C19.8906 65.8753 20.1256 65.3032 20.5438 64.8814C20.962 64.4596 21.5293 64.2227 22.1207 64.2227H52.4501C53.0415 64.2227 53.6088 64.4596 54.027 64.8814C54.4452 65.3032 54.6802 65.8753 54.6802 66.4718V97.0604C54.6802 97.6569 54.4452 98.229 54.027 98.6508C53.6088 99.0726 53.0415 99.3096 52.4501 99.3096ZM24.2795 94.8112H50.22V68.721H24.2795V94.8112Z" fill="#A8BAA2"/>
<path d="M82.8713 99.3096H52.4528C51.8613 99.3096 51.2941 99.0726 50.8758 98.6508C50.4576 98.229 50.2227 97.6569 50.2227 97.0604V66.4718C50.2227 65.8753 50.4576 65.3032 50.8758 64.8814C51.2941 64.4596 51.8613 64.2227 52.4528 64.2227H82.8713C83.4628 64.2227 84.03 64.4596 84.4482 64.8814C84.8665 65.3032 85.1014 65.8753 85.1014 66.4718V97.0604C85.1014 97.6569 84.8665 98.229 84.4482 98.6508C84.03 99.0726 83.4628 99.3096 82.8713 99.3096ZM54.6829 94.8112H80.6412V68.721H54.6829V94.8112Z" fill="#A8BAA2"/>
<path d="M95.536 55.9463H65.2067C64.6152 55.9463 64.048 55.7093 63.6297 55.2875C63.2115 54.8657 62.9766 54.2936 62.9766 53.6971V23.1085C62.9766 22.512 63.2115 21.9399 63.6297 21.5181C64.048 21.0963 64.6152 20.8594 65.2067 20.8594H95.536C96.1124 20.8589 96.6665 21.0835 97.0822 21.486C97.498 21.8886 97.7431 22.4378 97.7661 23.0186V53.6072C97.7782 53.91 97.7294 54.2122 97.6227 54.4955C97.516 54.7789 97.3536 55.0376 97.1453 55.256C96.9371 55.4745 96.6871 55.6483 96.4106 55.7669C96.134 55.8855 95.8366 55.9465 95.536 55.9463ZM67.3476 51.448H93.3059V25.2677H67.3476V51.448Z" fill="#A8BAA2"/>
</svg>
