<svg width="119" height="119" viewBox="0 0 119 119" fill="none" xmlns="http://www.w3.org/2000/svg">
<path d="M59.5028 103.416C35.7589 103.416 16.332 83.9889 16.332 60.245C16.332 36.501 35.7589 17.0742 59.5028 17.0742C83.2467 17.0742 102.674 36.501 102.674 60.245C102.674 83.9889 83.2467 103.416 59.5028 103.416ZM59.5028 21.3913C38.0973 21.3913 20.829 38.6596 20.829 60.0651C20.829 81.4706 38.0973 98.7389 59.5028 98.7389C80.9082 98.7389 98.1765 81.4706 98.1765 60.0651C98.1765 38.8395 80.9082 21.3913 59.5028 21.3913Z" fill="#A8BAA2"/>
<path d="M40.6149 85.9662C38.8161 85.9662 37.0173 85.2467 35.7582 83.9875L35.5783 83.8076C32.8801 81.1095 32.8801 76.7924 35.5783 73.9144L60.0417 50.3503C60.9411 49.4509 62.3801 49.4509 63.2795 50.3503C64.1789 51.2497 64.1789 52.6887 63.2795 53.5881L38.6362 77.1522C37.7369 78.0515 37.7369 79.6704 38.6362 80.5698L38.8161 80.7497C39.7155 81.6491 41.3344 81.6491 42.2338 80.7497L66.6972 57.0058C67.5966 56.1064 69.0356 56.1064 69.935 57.0058C70.8344 57.9052 70.8344 59.3442 69.935 60.2436L45.4716 83.9875C44.2125 85.2467 42.4137 85.9662 40.6149 85.9662Z" fill="#A8BAA2"/>
<path d="M71.9125 60.9624C68.315 60.9624 65.0772 59.5234 62.5589 57.0051C60.0406 54.4868 58.6016 51.0691 58.6016 47.6514C58.6016 44.2337 60.0406 40.8161 62.5589 38.2978C67.9552 32.7215 74.6107 33.9807 77.3089 35.5996C77.8485 35.9593 78.3881 36.499 78.3881 37.2185C78.568 37.938 78.2083 38.6575 77.6686 39.1972L71.3729 45.4929L72.0924 47.4715L74.0711 48.1911L80.1869 42.0752C80.7266 41.5356 81.4461 41.3557 82.1656 41.5356C82.8851 41.7154 83.4247 42.0752 83.7845 42.7947C83.9644 43.1545 87.5619 50.8892 81.0863 57.3648C78.7479 59.5234 75.5101 60.9624 71.9125 60.9624ZM71.7327 38.4776C69.9339 38.4776 67.7753 39.0173 65.6168 41.1758C63.9979 42.7947 62.9186 45.1331 62.9186 47.4715C62.9186 49.81 63.818 51.9685 65.4369 53.7673C67.0558 55.3862 69.3942 56.2856 71.7327 56.2856C74.0711 56.2856 76.2296 55.3862 78.0284 53.7673C80.007 51.7886 80.5467 49.6301 80.5467 47.8313L76.2296 52.1484C75.69 52.688 74.7906 53.0478 73.8912 52.688L69.5741 51.249C69.0345 51.0691 68.4949 50.5295 68.1351 49.9898L66.5162 45.6728C66.1564 44.7734 66.3363 43.874 67.0558 43.3343L71.7327 38.4776Z" fill="#A8BAA2"/>
<path d="M41.3375 79.671C42.057 79.671 42.7765 78.9515 42.7765 78.232C42.7765 77.5125 42.057 76.793 41.3375 76.793C40.618 76.793 39.8984 77.5125 39.8984 78.232C39.8984 78.9515 40.4381 79.671 41.3375 79.671Z" fill="#A8BAA2"/>
<path d="M30.8939 31.8178L27.7969 35.0781L85.3084 89.7101L88.4054 86.4498L30.8939 31.8178Z" fill="#A8BAA2"/>
</svg>
