<svg width="119" height="119" viewBox="0 0 119 119" fill="none" xmlns="http://www.w3.org/2000/svg">
<path d="M43.8668 99.9987C42.9674 99.9987 42.068 99.4591 41.7083 98.3798L36.6717 81.831C36.312 80.5719 37.0315 79.3127 38.1107 78.953C39.3699 78.5932 40.629 79.3127 40.9888 80.392L46.0254 96.7609C46.3851 98.02 45.6656 99.2792 44.5863 99.6389C44.2266 99.8188 44.0467 99.9987 43.8668 99.9987Z" fill="#A8BAA2"/>
<path d="M62.2145 99.9985C61.3151 99.9985 60.4157 99.4589 60.056 98.3796L55.0194 82.0107C54.6596 80.7516 55.3791 79.4924 56.4584 79.1326C57.7175 78.7729 58.9767 79.4924 59.3364 80.5717L64.373 96.9406C64.7328 98.1997 64.0133 99.4589 62.934 99.8186C62.5742 99.8186 62.3944 99.9985 62.2145 99.9985Z" fill="#A8BAA2"/>
<path d="M80.5621 99.9985C79.6628 99.9985 78.7634 99.4589 78.4036 98.3796L73.367 82.0107C73.0073 80.7516 73.7268 79.4924 74.806 79.1326C76.0652 78.7729 77.3243 79.4924 77.6841 80.5717L82.7207 96.9406C83.0804 98.1997 82.3609 99.4589 81.2816 99.8186C81.1018 99.8186 80.742 99.9985 80.5621 99.9985Z" fill="#A8BAA2"/>
<path d="M61.316 69.2391C60.7764 69.2391 60.0569 69.2391 59.5172 69.2391H39.3709C39.0111 69.2391 38.4715 69.2391 37.9319 69.2391C26.5996 69.2391 17.4258 60.0654 17.4258 48.9129C17.4258 37.7605 26.5996 28.5867 37.9319 28.5867C39.5508 28.5867 40.9898 28.7666 42.4288 29.1263C47.1057 23.73 53.941 20.4922 61.316 20.4922C70.3099 20.4922 78.7642 25.5288 82.9014 33.2635C93.1544 32.9038 101.789 41.1782 101.789 51.2513C101.789 60.0654 95.1331 67.8001 86.3191 69.0593H85.2398C84.8801 69.0593 77.3252 69.0593 62.9349 69.0593C62.3953 69.2391 61.8557 69.2391 61.316 69.2391ZM59.6971 64.5623C60.9563 64.5623 61.8557 64.5623 62.7551 64.5623H62.9349C71.3892 64.5623 84.1605 64.5623 85.0599 64.5623L85.9593 64.3824C92.4349 63.3032 97.4715 57.5471 97.4715 51.0715C97.4715 43.5166 91.3557 37.5806 83.8008 37.5806C83.2611 37.5806 82.5416 37.5806 82.002 37.7605L80.3831 37.9404L79.6636 36.5013C76.4258 29.4861 69.2307 24.9891 61.316 24.9891C54.8404 24.9891 48.9044 27.8672 45.127 33.0837L44.2276 34.3428L42.7886 33.8032C41.3496 33.2635 39.7307 33.0837 38.1118 33.0837C29.2977 33.0837 22.1026 40.0989 22.1026 48.9129C22.1026 57.7269 29.2977 64.7422 38.1118 64.7422C38.4715 64.7422 39.0111 64.7422 39.3709 64.7422L59.6971 64.5623Z" fill="#A8BAA2"/>
</svg>
