<svg width="67" height="67" viewBox="0 0 67 67" fill="none" xmlns="http://www.w3.org/2000/svg">
<path d="M33.3429 58.1314C33.2429 58.1314 33.1429 58.1314 33.1429 58.1314C32.6429 58.0309 21.2429 55.6193 14.9429 44.968C8.84292 34.4171 10.8429 16.4305 10.9429 15.6266C11.0429 15.0237 11.5429 14.5213 12.1429 14.5213C24.8429 14.5213 32.6429 10.0999 32.7429 10.0999C33.1429 9.89898 33.6429 9.89898 33.9429 10.0999C34.0429 10.0999 41.8429 14.5213 54.5429 14.5213C55.1429 14.5213 55.7429 15.0237 55.7429 15.6266C55.8429 16.4305 58.0429 34.4171 51.7429 44.968C45.4429 55.6193 34.0429 58.0309 33.5429 58.1314C33.4429 58.1314 33.4429 58.1314 33.3429 58.1314ZM13.2429 17.0334C12.9429 21.0527 12.1429 35.3215 16.9429 43.6617C22.2429 52.5043 31.6429 55.1169 33.2429 55.6193C34.9429 55.2174 44.3429 52.5043 49.5429 43.6617C54.5429 35.3215 53.6429 21.0527 53.2429 17.0334C42.4429 16.8324 35.2429 13.6169 33.1429 12.6121C31.2429 13.7174 24.0429 16.8324 13.2429 17.0334Z" fill="#A8BAA2"/>
<path d="M31.188 41.8463V39.1303H24.2496L27.2623 36.5512C29.7958 34.3829 31.0739 32.6255 31.0739 30.2974C31.0739 26.9195 28.86 24.8882 25.2995 24.8882C21.7618 24.8882 19.4337 27.2618 19.4109 30.9137H22.3095C22.3323 28.7682 23.4735 27.4901 25.2995 27.4901C27.0569 27.4901 28.084 28.5628 28.084 30.4572C28.084 32.0549 27.3308 33.1504 25.0712 35.0676L19.6163 39.678V41.8691L31.188 41.8463ZM32.9881 33.5612C32.9881 38.7194 35.6128 42.1659 40.0407 42.1659C44.4685 42.1659 47.1161 38.7194 47.1161 33.5612C47.1161 28.3802 44.3087 24.8653 40.0407 24.8653C35.7726 24.8653 32.9881 28.3802 32.9881 33.5612ZM35.8639 33.5612C35.8639 29.6127 37.4159 27.4444 40.0407 27.4444C42.6882 27.4444 44.2403 29.6127 44.2403 33.5612C44.2403 37.4185 42.6882 39.5868 40.0407 39.5868C37.4159 39.5868 35.8639 37.4185 35.8639 33.5612Z" fill="#A8BAA2"/>
</svg>
