<svg width="67" height="67" viewBox="0 0 67 67" fill="none" xmlns="http://www.w3.org/2000/svg">
<path d="M36.1422 32.7074C35.8422 32.7074 35.5422 32.6069 35.2422 32.3054C34.7422 31.803 34.7422 30.9992 35.2422 30.4967L40.2422 25.4725C40.7422 24.9701 41.5422 24.9701 42.0422 25.4725C42.5422 25.9749 42.5422 26.7788 42.0422 27.2812L37.0422 32.3054C36.7422 32.6069 36.4422 32.7074 36.1422 32.7074Z" fill="#A8BAA2"/>
<path d="M41.0426 37.6312C40.7426 37.6312 40.4426 37.5307 40.1426 37.2293C39.6426 36.7269 39.6426 35.923 40.1426 35.4206L45.1426 30.3963C45.6426 29.8939 46.4426 29.8939 46.9426 30.3963C47.4426 30.8988 47.4426 31.7026 46.9426 32.2051L41.9426 37.2293C41.6426 37.4302 41.3426 37.6312 41.0426 37.6312Z" fill="#A8BAA2"/>
<path d="M21.543 55.6191C20.343 55.6191 19.143 55.2171 18.343 54.3128L18.143 54.1118C16.343 52.3031 16.343 49.3891 18.143 47.5803L30.343 35.4217C30.843 34.9193 31.643 34.9193 32.143 35.4217C32.643 35.9242 32.643 36.728 32.143 37.2305L19.943 49.3891C19.143 50.1929 19.143 51.4992 19.943 52.4036L20.143 52.6045C20.943 53.4084 22.243 53.4084 23.143 52.6045L35.343 40.3455C35.843 39.843 36.643 39.843 37.143 40.3455C37.643 40.8479 37.643 41.6518 37.143 42.1542L24.843 54.3128C23.943 55.2171 22.743 55.6191 21.543 55.6191Z" fill="#A8BAA2"/>
<path d="M48.643 33.0089C46.243 33.0089 43.943 32.0041 42.143 30.2958C40.343 28.5876 39.543 26.2765 39.543 23.7643C39.543 21.3527 40.543 19.0416 42.243 17.2329C46.043 13.4145 50.543 14.3188 52.343 15.3237C52.643 15.5246 52.943 15.8261 52.943 16.228C53.043 16.63 52.843 17.0319 52.543 17.3334L47.943 21.9556L48.643 23.7643L50.443 24.3672L55.043 19.745C55.343 19.4435 55.743 19.343 56.143 19.4435C56.543 19.544 56.843 19.745 57.043 20.1469C57.143 20.3479 59.643 25.774 55.143 30.1953C53.443 32.0041 51.143 33.0089 48.643 33.0089ZM48.543 16.9314C47.243 16.9314 45.543 17.3334 43.943 19.0416C42.643 20.3479 41.943 21.9556 41.943 23.7643C41.943 25.5731 42.643 27.1808 43.943 28.4871C45.243 29.7934 46.843 30.4968 48.643 30.4968C50.443 30.4968 52.043 29.7934 53.343 28.4871C55.143 26.6784 55.343 24.5682 55.243 23.1614L51.643 26.7789C51.343 27.0803 50.843 27.2813 50.343 27.0803L47.243 25.975C46.943 25.8745 46.643 25.5731 46.443 25.2716L45.243 22.1566C45.043 21.6542 45.143 21.1518 45.543 20.8503L49.243 17.1324C49.143 17.0319 48.843 16.9314 48.543 16.9314Z" fill="#A8BAA2"/>
<path d="M50.6428 55.6191C49.4428 55.6191 48.2428 55.1167 47.3428 54.2123L21.8428 28.6893C21.3428 28.1869 21.3428 27.383 21.8428 26.8806C22.3428 26.3782 23.1428 26.3782 23.6428 26.8806L49.1428 52.5041C49.9428 53.308 51.3428 53.308 52.1428 52.5041L52.2428 52.4036C53.0428 51.5997 53.0428 50.193 52.2428 49.3891L35.2428 32.3068L26.8428 23.7656C26.3428 23.2632 26.3428 22.4593 26.8428 21.9569C27.3428 21.4545 28.1428 21.4545 28.6428 21.9569L41.9428 35.3213L54.0428 47.4799C55.8428 49.2886 55.8428 52.3031 54.0428 54.1119L53.9428 54.2123C53.0428 55.2172 51.8428 55.6191 50.6428 55.6191Z" fill="#A8BAA2"/>
<path d="M15.5426 34.4163C14.8426 34.4163 14.1426 34.1149 13.6426 33.6125L9.64258 29.5931C8.64258 28.3873 8.64258 26.6791 9.64258 25.6742L11.4426 23.8655C11.7426 23.564 12.0426 23.4636 12.4426 23.4636L14.0426 23.6645C14.1426 23.6645 14.1426 23.6645 14.2426 23.564C14.2426 23.564 14.3426 23.4636 14.3426 23.3631L14.1426 21.8558C14.1426 21.4539 14.2426 21.1524 14.5426 20.851L19.5426 15.8268C21.4426 14.018 23.3426 13.0132 25.4426 12.8122C29.8426 11.8074 33.1426 13.8171 33.9426 14.9224C34.4426 15.6258 34.2426 16.2287 34.1426 16.4297C33.9426 16.8316 33.4426 17.1331 32.9426 17.1331C29.4426 16.9321 27.7426 18.1379 26.8426 19.2432L29.2426 21.6548C29.4426 21.8558 29.6426 22.2577 29.6426 22.5592C29.6426 22.8607 29.5426 23.2626 29.2426 23.4636L22.9426 29.6936C22.6426 29.995 22.1426 30.0955 21.7426 29.995L19.7426 29.4926C19.6426 29.4926 19.6426 29.4926 19.5426 29.4926C19.4426 29.4926 19.4426 29.5931 19.4426 29.6936L19.5426 30.8994C19.5426 31.3013 19.4426 31.7033 19.1426 31.9042L17.5426 33.6125C16.9426 34.1149 16.2426 34.4163 15.5426 34.4163ZM12.7426 26.0762L11.3426 27.4829C11.2426 27.5834 11.2426 27.6839 11.4426 27.8849L15.4426 31.9042C15.5426 32.0047 15.6426 32.0047 15.8426 31.8038L17.1426 30.4975L17.0426 29.8946C16.9426 28.8897 17.3426 27.9854 18.0426 27.4829C18.7426 26.88 19.6426 26.7795 20.4426 26.9805L21.7426 27.282L26.6426 22.4587L24.4426 20.2481C24.0426 19.8461 23.9426 19.2432 24.2426 18.8413C24.8426 17.6355 26.1426 15.9272 28.6426 15.0229C27.8426 14.9224 26.9426 14.9224 25.9426 15.2239H25.8426C24.2426 15.4248 22.8426 16.1282 21.3426 17.6355L16.7426 22.2577L16.8426 23.2626C16.9426 24.0665 16.6426 24.8703 16.0426 25.4732C15.4426 26.0762 14.6426 26.3776 13.8426 26.2771L12.7426 26.0762Z" fill="#A8BAA2"/>
</svg>
