<svg width="67" height="67" viewBox="0 0 67 67" fill="none" xmlns="http://www.w3.org/2000/svg">
<path fill-rule="evenodd" clip-rule="evenodd" d="M45.7426 31.0003C45.8426 31.0003 46.0426 31.0003 46.1426 31.0003H47.1426C47.5426 31.0003 48.0426 31.1008 48.7426 31.1008C47.3426 24.4689 41.6426 19.7461 34.8426 19.7461C27.0426 19.7461 20.6426 26.1771 20.6426 34.0149C20.6426 41.8526 27.0426 48.2836 34.8426 48.2836C36.2426 48.2836 37.5426 48.0827 38.8426 47.6807C38.6426 47.3793 38.4426 47.1783 38.3426 46.8768C38.0426 46.3744 37.7426 45.7715 37.4426 45.0681C36.5426 45.2691 35.6426 45.3696 34.7426 45.3696C28.5426 45.3696 23.4426 40.2449 23.4426 34.0149C23.4426 27.7848 28.5426 22.6601 34.7426 22.6601C39.9426 22.6601 44.3426 26.0766 45.7426 31.0003Z" fill="#A8BAA2"/>
<path d="M16.0428 32.6074H13.3428C12.5428 32.6074 11.8428 33.3108 11.8428 34.1147C11.8428 34.9186 12.5428 35.6219 13.3428 35.6219H16.0428C16.8428 35.6219 17.5428 34.9186 17.5428 34.1147C17.5428 33.2103 16.8428 32.6074 16.0428 32.6074Z" fill="#A8BAA2"/>
<path d="M34.8428 11.0039C34.0428 11.0039 33.3428 11.7073 33.3428 12.5112V15.2242C33.3428 16.0281 34.0428 16.7315 34.8428 16.7315C35.6428 16.7315 36.3428 16.0281 36.3428 15.2242V12.5112C36.3428 11.6068 35.6428 11.0039 34.8428 11.0039Z" fill="#A8BAA2"/>
<path d="M34.8428 51.5C34.0428 51.5 33.3428 52.2034 33.3428 53.0073V55.7203C33.3428 56.5242 34.0428 57.2276 34.8428 57.2276C35.6428 57.2276 36.3428 56.5242 36.3428 55.7203V52.9068C36.3428 52.1029 35.6428 51.5 34.8428 51.5Z" fill="#A8BAA2"/>
<path d="M20.6432 17.7359C20.3432 17.4345 20.0432 17.334 19.6432 17.334C19.2432 17.334 18.9432 17.535 18.6432 17.7359C18.3432 18.0374 18.2432 18.4393 18.2432 18.7408C18.2432 19.1427 18.4432 19.4442 18.6432 19.7456L20.5432 21.7553C21.0432 22.2577 22.0432 22.2577 22.5432 21.7553C23.1432 21.1524 23.1432 20.248 22.5432 19.6451L20.6432 17.7359Z" fill="#A8BAA2"/>
<path d="M51.143 17.7359C50.843 17.4345 50.543 17.334 50.143 17.334C49.743 17.334 49.443 17.535 49.143 17.7359L47.243 19.6451C46.643 20.248 46.643 21.1524 47.243 21.7553C47.843 22.3582 48.743 22.3582 49.343 21.7553L51.243 19.8461C51.643 19.2432 51.643 18.3388 51.143 17.7359Z" fill="#A8BAA2"/>
<path d="M21.5424 45.9727C21.1424 45.9727 20.7424 46.1736 20.5424 46.3746L18.6424 48.2838C18.0424 48.8867 18.0424 49.7911 18.6424 50.394C18.9424 50.6954 19.2424 50.7959 19.6424 50.7959C20.0424 50.7959 20.3424 50.5949 20.6424 50.394L22.5424 48.4848C23.1424 47.8819 23.1424 46.9775 22.5424 46.3746C22.3424 46.0731 21.9424 45.9727 21.5424 45.9727Z" fill="#A8BAA2"/>
<path fill-rule="evenodd" clip-rule="evenodd" d="M54.6426 34.7189C50.7426 33.1111 47.4426 33.0106 46.6426 32.9102C46.6426 32.9102 46.6426 32.9102 46.5426 32.9102C46.4426 32.9102 46.4426 32.9102 46.4426 32.9102C45.6426 32.9102 42.3426 33.1111 38.4426 34.7189C38.4426 34.7189 37.5426 41.7528 39.9426 45.6717C42.0426 49.1886 45.6426 50.2939 46.4426 50.4949C46.4426 50.4949 46.4426 50.4949 46.5426 50.4949C46.6426 50.4949 46.6426 50.4949 46.6426 50.4949C47.4426 50.2939 51.1426 49.1886 53.1426 45.6717C55.5426 41.7528 54.6426 34.7189 54.6426 34.7189ZM46.1426 41.5518C46.1426 43.26 45.1426 44.1644 43.5426 44.1644C41.9426 44.1644 40.9426 43.26 40.9426 41.5518V38.3363H42.2426V41.4513C42.2426 42.5566 42.7426 42.9586 43.5426 42.9586C44.3426 42.9586 44.8426 42.5566 44.8426 41.4513V38.3363H46.1426V41.5518ZM50.4426 44.0639H49.1426L46.6426 38.3363H48.0426L49.7426 42.4562L51.5426 38.3363H52.8426L50.4426 44.0639Z" fill="#A8BAA2"/>
</svg>
