<svg width="67" height="67" viewBox="0 0 67 67" fill="none" xmlns="http://www.w3.org/2000/svg">
<path d="M24.5432 56.3226C24.0432 56.3226 23.5432 56.0212 23.3432 55.4182L20.5432 46.1737C20.3432 45.4703 20.7432 44.7669 21.3432 44.5659C22.0432 44.365 22.7432 44.7669 22.9432 45.3698L25.7432 54.5139C25.9432 55.2173 25.5432 55.9207 24.9432 56.1216C24.7432 56.2221 24.6432 56.3226 24.5432 56.3226Z" fill="#A8BAA2"/>
<path d="M34.7434 56.3217C34.2434 56.3217 33.7434 56.0203 33.5434 55.4174L30.7434 46.2733C30.5434 45.5699 30.9434 44.8665 31.5434 44.6656C32.2434 44.4646 32.9434 44.8665 33.1434 45.4694L35.9434 54.6135C36.1434 55.3169 35.7434 56.0203 35.1434 56.2212C34.9434 56.2212 34.8434 56.3217 34.7434 56.3217Z" fill="#A8BAA2"/>
<path d="M44.9436 56.3217C44.4436 56.3217 43.9436 56.0203 43.7436 55.4174L40.9436 46.2733C40.7436 45.5699 41.1436 44.8665 41.7436 44.6656C42.4436 44.4646 43.1436 44.8665 43.3436 45.4694L46.1436 54.6135C46.3436 55.3169 45.9436 56.0203 45.3436 56.2212C45.2436 56.2212 45.0436 56.3217 44.9436 56.3217Z" fill="#A8BAA2"/>
<path d="M34.2428 39.1394C33.9428 39.1394 33.5428 39.1394 33.2428 39.1394H22.0428C21.8428 39.1394 21.5428 39.1394 21.2428 39.1394C14.9428 39.1394 9.84277 34.0147 9.84277 27.7847C9.84277 21.5547 14.9428 16.43 21.2428 16.43C22.1428 16.43 22.9428 16.5305 23.7428 16.7314C26.3428 13.7169 30.1428 11.9082 34.2428 11.9082C39.2428 11.9082 43.9428 14.7218 46.2428 19.0426C51.9428 18.8416 56.7428 23.4639 56.7428 29.091C56.7428 34.0147 53.0428 38.3356 48.1428 39.039H47.5428C47.3428 39.039 43.1428 39.039 35.1428 39.039C34.8428 39.1394 34.5428 39.1394 34.2428 39.1394ZM33.3428 36.5268C34.0428 36.5268 34.5428 36.5268 35.0428 36.5268H35.1428C39.8428 36.5268 46.9428 36.5268 47.4428 36.5268L47.9428 36.4264C51.5428 35.8235 54.3428 32.608 54.3428 28.9905C54.3428 24.7702 50.9428 21.4542 46.7428 21.4542C46.4428 21.4542 46.0428 21.4542 45.7428 21.5547L44.8428 21.6552L44.4428 20.8513C42.6428 16.9324 38.6428 14.4203 34.2428 14.4203C30.6428 14.4203 27.3428 16.0281 25.2428 18.9421L24.7428 19.6455L23.9428 19.344C23.1428 19.0426 22.2428 18.9421 21.3428 18.9421C16.4428 18.9421 12.4428 22.861 12.4428 27.7847C12.4428 32.7084 16.4428 36.6273 21.3428 36.6273C21.5428 36.6273 21.8428 36.6273 22.0428 36.6273L33.3428 36.5268Z" fill="#A8BAA2"/>
</svg>
