<svg width="67" height="67" viewBox="0 0 67 67" fill="none" xmlns="http://www.w3.org/2000/svg">
<path d="M41.3436 40.546C38.8436 40.546 36.4436 39.7421 34.4436 38.2348C31.6436 36.2251 29.9436 33.3111 29.5436 30.0956C29.1436 26.9806 30.1436 23.8656 32.2436 21.3535C35.8436 17.0326 41.3436 14.2191 48.2436 13.1137C50.9436 12.7118 53.4436 12.6113 54.9436 12.6113H55.1436C55.5436 12.6113 55.9436 12.8123 56.1436 13.2142C56.3436 13.6162 56.4436 14.0181 56.2436 14.42C55.0436 17.4346 54.6436 20.5496 54.3436 23.5641L54.1436 24.7699C53.6436 28.9903 52.8436 33.0096 50.0436 36.4261C48.1436 38.7372 45.5436 40.144 42.5436 40.546C42.2436 40.546 41.7436 40.546 41.3436 40.546ZM53.4436 15.1234C52.1436 15.1234 50.4436 15.3244 48.6436 15.5254C42.2436 16.5302 37.3436 19.0423 34.1436 22.8607C32.5436 24.8704 31.7436 27.282 32.0436 29.6937C32.3436 32.2058 33.7436 34.4164 35.9436 36.1246C37.8436 37.5314 40.0436 38.2348 42.3436 37.9334C44.6436 37.6319 46.6436 36.5266 48.1436 34.7179L48.2436 34.6174C50.6436 31.8038 51.2436 28.2869 51.7436 24.368L51.8436 23.1622C52.2436 20.6501 52.5436 17.8365 53.4436 15.1234Z" fill="#A8BAA2"/>
<path d="M21.1434 45.5699C21.0434 45.5699 21.0434 45.5699 20.9434 45.5699C18.9434 45.4694 17.0434 44.6655 15.6434 43.2587C13.5434 41.1486 12.7434 38.4355 12.1434 35.6219L11.9434 34.818C11.5434 33.1098 11.1434 31.1001 10.3434 29.2914C10.1434 28.8895 10.2434 28.4875 10.4434 28.1861C10.6434 27.8846 11.0434 27.5832 11.4434 27.5832C12.8434 27.4827 14.1434 27.4827 15.4434 27.5832C20.2434 27.8846 24.1434 29.4924 26.8434 32.2055C28.4434 33.8132 29.2434 35.8229 29.1434 37.9331C29.0434 40.1437 28.0434 42.1534 26.3434 43.6607C24.9434 44.8665 23.0434 45.5699 21.1434 45.5699ZM17.4434 41.5505C18.3434 42.5553 19.6434 43.0578 21.0434 43.1582C22.3434 43.1582 23.6434 42.7563 24.6434 41.7515C25.9434 40.6461 26.6434 39.2394 26.6434 37.7321C26.6434 36.3253 26.1434 34.9185 25.0434 33.8132C22.7434 31.5021 19.4434 30.1958 15.2434 29.8943C14.6434 29.8943 13.9434 29.7938 13.2434 29.7938C13.7434 31.3011 14.0434 32.8084 14.3434 34.1147L14.5434 34.9185C15.1434 37.6316 15.7434 39.8423 17.4434 41.5505C17.4434 41.45 17.4434 41.45 17.4434 41.5505Z" fill="#A8BAA2"/>
<path d="M30.5437 55.5181C30.0437 55.5181 29.5437 55.2166 29.3437 54.7142C27.6437 50.2929 23.3437 41.0483 18.7437 37.2299C18.2437 36.828 18.1437 36.0241 18.5437 35.4212C18.9437 34.9188 19.7437 34.8183 20.3437 35.2203C24.1437 38.4358 27.8437 44.9672 30.0437 49.9914C31.4437 44.1634 35.0437 33.1101 43.5437 23.0617C43.9437 22.5592 44.7437 22.4588 45.3437 22.9612C45.8437 23.3631 45.9437 24.167 45.4437 24.7699C34.0437 38.2348 31.7437 54.3123 31.7437 54.4128C31.6437 55.0157 31.2437 55.4176 30.6437 55.5181H30.5437Z" fill="#A8BAA2"/>
</svg>
