<svg width="67" height="67" viewBox="0 0 67 67" fill="none" xmlns="http://www.w3.org/2000/svg">
<path d="M21.0436 49.7913L19.1436 51.9015C23.2436 55.6194 28.5436 57.6291 34.0436 57.6291C42.4436 57.6291 50.2436 52.8059 54.0436 45.2695C52.9436 45.6715 51.7436 45.7719 50.6436 45.4705C47.0436 51.2986 40.8436 54.8155 33.9436 54.8155C29.2436 54.8155 24.6436 53.0068 21.0436 49.7913Z" fill="#A8BAA2"/>
<path d="M25.2436 17.5355L23.8436 15.0234C16.3436 18.9423 11.6436 26.5791 11.6436 35.1203C11.6436 37.4314 12.0436 39.8431 12.7436 42.0537C13.3436 41.1493 14.1436 40.3455 15.0436 39.8431C14.6436 38.3358 14.4436 36.728 14.4436 35.1203C14.4436 27.6845 18.6436 20.8515 25.2436 17.5355Z" fill="#A8BAA2"/>
<path d="M37.5428 23.7656H30.3428V29.6942H37.5428V23.7656Z" fill="#A8BAA2"/>
<path d="M37.1436 18.3397L31.1436 14.8228L36.4436 10.502L37.1436 18.3397Z" fill="#A8BAA2"/>
<path d="M53.5439 33.1101H56.3439C55.4439 22.0568 46.5439 13.3147 35.5439 12.6113C36.1439 13.5157 36.4439 14.5205 36.4439 15.5254C45.5439 16.7312 52.6439 24.0665 53.5439 33.1101Z" fill="#A8BAA2"/>
<path d="M17.1432 38.5371L16.2432 45.37L10.2432 42.1545L17.1432 38.5371Z" fill="#A8BAA2"/>
<path d="M48.1436 45.3707L53.6436 41.1504L55.6436 47.6819L48.1436 45.3707Z" fill="#A8BAA2"/>
<path d="M40.3428 27.082H27.5428C26.6428 27.082 25.8428 27.7854 25.8428 28.7903V44.0639C25.8428 44.9682 26.5428 45.7721 27.5428 45.7721H40.2428C41.1428 45.7721 41.9428 45.0687 41.9428 44.0639V28.7903C41.9428 27.8859 41.2428 27.082 40.3428 27.082ZM39.4428 43.26H28.4428V29.5941H39.5428V43.26H39.4428Z" fill="#A8BAA2"/>
</svg>
