<svg width="67" height="67" viewBox="0 0 67 67" fill="none" xmlns="http://www.w3.org/2000/svg">
<path d="M43.643 43.5612L41.843 41.7525L54.143 29.192C54.243 29.0915 54.243 28.991 54.243 28.991C54.243 28.991 54.243 28.8905 54.143 28.79L51.743 26.3784C51.643 26.2779 51.443 26.2779 51.343 26.3784L46.343 29.7949C45.843 30.0963 45.143 30.0963 44.743 29.6944C44.343 29.2924 44.243 28.5891 44.543 28.0866L47.843 23.0624C47.943 22.9619 47.943 22.761 47.843 22.6605L42.743 17.5358C42.643 17.4353 42.543 17.4353 42.343 17.4353L41.443 17.8372C40.943 18.0382 40.443 17.9377 40.043 17.6363C39.643 17.2343 39.543 16.7319 39.743 16.2295L40.143 15.3251C40.243 15.2246 40.143 15.0237 40.043 14.9232L38.443 13.3154C38.243 13.1145 38.143 13.1145 37.943 13.3154L25.843 25.7755L24.043 23.9668L36.543 11.5067C37.643 10.4014 39.443 10.4014 40.543 11.5067L42.143 13.1145C42.643 13.6169 42.943 14.2198 42.943 14.9232C43.543 15.0237 44.243 15.2246 44.743 15.7271L49.843 20.8518C50.743 21.7561 50.943 23.0624 50.343 24.1677C51.443 23.6653 52.743 23.7658 53.643 24.6702L56.043 27.0818C56.543 27.5842 56.843 28.2876 56.843 29.0915C56.843 29.8953 56.543 30.5987 56.043 31.1012L43.643 43.5612Z" fill="#A8BAA2"/>
<path d="M16.8428 57.4272C15.0428 57.4272 13.2428 56.7238 11.9428 55.4176C10.6428 54.1113 9.84277 52.403 9.84277 50.4938C9.84277 48.5846 10.5428 46.8764 11.9428 45.5701C12.3428 45.1682 13.3428 44.2638 23.6428 37.7323C24.1428 37.4309 24.4428 36.9285 24.4428 36.426C24.5428 35.9236 24.3428 35.3207 23.9428 35.0193L20.4428 31.6028C19.9428 31.1004 19.6428 30.397 19.6428 29.5931C19.6428 28.8897 19.9428 28.0858 20.4428 27.5834L24.9428 23.1621L44.6428 42.5556L40.0428 47.0774C38.9428 48.1827 37.1428 48.1827 36.0428 47.0774L32.5428 43.6609C32.1428 43.259 31.5428 43.058 31.0428 43.1585C30.4428 43.259 29.9428 43.5604 29.6428 43.9623C23.0428 54.1113 22.1428 55.0156 21.7428 55.4176C20.4428 56.7238 18.6428 57.4272 16.8428 57.4272ZM22.2428 29.3921C22.1428 29.4926 22.1428 29.4926 22.1428 29.5931C22.1428 29.6936 22.1428 29.7941 22.2428 29.7941L25.7428 33.2105C26.6428 34.1149 27.1428 35.4212 27.0428 36.7275C26.9428 38.0338 26.1428 39.2396 25.0428 39.943C20.4428 42.857 14.7428 46.4745 13.8428 47.3788C13.0428 48.1827 12.5428 49.288 12.5428 50.4938C12.5428 51.6996 13.0428 52.805 13.8428 53.6088C15.6428 55.3171 18.4428 55.3171 20.2428 53.6088C21.2428 52.7045 24.9428 47.0774 27.8428 42.5556C28.5428 41.4502 29.7428 40.7469 31.0428 40.5459C32.3428 40.4454 33.6428 40.8473 34.5428 41.7517L38.0428 45.1682C38.1428 45.2686 38.4428 45.2686 38.5428 45.1682L41.2428 42.4551L24.9428 26.6791L22.2428 29.3921Z" fill="#A8BAA2"/>
<path d="M16.5432 51.8001C17.2611 51.8001 17.8432 51.2152 17.8432 50.4938C17.8432 49.7723 17.2611 49.1875 16.5432 49.1875C15.8252 49.1875 15.2432 49.7723 15.2432 50.4938C15.2432 51.2152 15.8252 51.8001 16.5432 51.8001Z" fill="#A8BAA2"/>
</svg>
