<svg width="67" height="67" viewBox="0 0 67 67" fill="none" xmlns="http://www.w3.org/2000/svg">
<path d="M33.3428 58.2324C20.1428 58.2324 9.34277 47.3801 9.34277 34.1162C9.34277 20.8523 20.1428 10 33.3428 10C46.5428 10 57.3428 20.8523 57.3428 34.1162C57.3428 47.3801 46.5428 58.2324 33.3428 58.2324ZM33.3428 12.4116C21.4428 12.4116 11.8428 22.0581 11.8428 34.0157C11.8428 45.9734 21.4428 55.6199 33.3428 55.6199C45.2428 55.6199 54.8428 45.9734 54.8428 34.0157C54.8428 22.1586 45.2428 12.4116 33.3428 12.4116Z" fill="#A8BAA2"/>
<path d="M22.843 48.4856C21.843 48.4856 20.843 48.0837 20.143 47.3803L20.043 47.2798C18.543 45.7725 18.543 43.3609 20.043 41.7531L33.643 28.5897C34.143 28.0873 34.943 28.0873 35.443 28.5897C35.943 29.0921 35.943 29.896 35.443 30.3984L21.743 43.5619C21.243 44.0643 21.243 44.9686 21.743 45.4711L21.843 45.5715C22.343 46.074 23.243 46.074 23.743 45.5715L37.343 32.3076C37.843 31.8052 38.643 31.8052 39.143 32.3076C39.643 32.81 39.643 33.6139 39.143 34.1163L25.543 47.3803C24.843 48.0837 23.843 48.4856 22.843 48.4856Z" fill="#A8BAA2"/>
<path d="M40.2428 34.5176C38.2428 34.5176 36.4428 33.7137 35.0428 32.3069C33.6428 30.9001 32.8428 28.9909 32.8428 27.0817C32.8428 25.1725 33.6428 23.2633 35.0428 21.8565C38.0428 18.7415 41.7428 19.4449 43.2428 20.3493C43.5428 20.5502 43.8428 20.8517 43.8428 21.2536C43.9428 21.6556 43.7428 22.0575 43.4428 22.359L39.9428 25.8759L40.3428 26.9812L41.4428 27.3832L44.8428 23.9667C45.1428 23.6652 45.5428 23.5648 45.9428 23.6652C46.3428 23.7657 46.6428 23.9667 46.8428 24.3686C46.9428 24.5696 48.9428 28.8904 45.3428 32.5079C44.0428 33.7137 42.2428 34.5176 40.2428 34.5176ZM40.1428 21.957C39.1428 21.957 37.9428 22.2585 36.7428 23.4643C35.8428 24.3686 35.2428 25.6749 35.2428 26.9812C35.2428 28.2875 35.7428 29.4933 36.6428 30.4982C37.5428 31.4025 38.8428 31.905 40.1428 31.905C41.4428 31.905 42.6428 31.4025 43.6428 30.4982C44.7428 29.3929 45.0428 28.187 45.0428 27.1822L42.6428 29.5938C42.3428 29.8953 41.8428 30.0962 41.3428 29.8953L38.9428 29.0914C38.6428 28.9909 38.3428 28.6895 38.1428 28.388L37.2428 25.9764C37.0428 25.474 37.1428 24.9715 37.5428 24.6701L40.1428 21.957Z" fill="#A8BAA2"/>
<path d="M23.2424 44.9691C23.6424 44.9691 24.0424 44.5671 24.0424 44.1652C24.0424 43.7633 23.6424 43.3613 23.2424 43.3613C22.8424 43.3613 22.4424 43.7633 22.4424 44.1652C22.4424 44.5671 22.7424 44.9691 23.2424 44.9691Z" fill="#A8BAA2"/>
<path d="M17.4385 18.2354L15.7168 20.0566L47.6893 50.5754L49.411 48.7541L17.4385 18.2354Z" fill="#A8BAA2"/>
</svg>
