<svg width="120" height="119" viewBox="0 0 120 119" fill="none" xmlns="http://www.w3.org/2000/svg">
<path d="M84.2755 99.2805H22.5987C21.3289 99.2805 20.4219 98.2012 20.4219 97.1219V35.7835C20.4219 34.5244 21.5103 33.625 22.5987 33.625H84.4569C85.7268 33.625 86.6338 34.7043 86.6338 35.7835V97.1219C86.6338 98.3811 85.5454 99.2805 84.2755 99.2805ZM24.7755 94.7835H82.0987V38.122H24.7755V94.7835Z" fill="#A8BAA2"/>
<path d="M83.9086 98.9185C83.3644 98.9185 82.8202 98.7387 82.276 98.199L21.3248 37.76C20.4178 36.8606 20.4178 35.4216 21.3248 34.5222C22.2318 33.6228 23.683 33.6228 24.59 34.5222L85.5413 94.9612C86.4483 95.8606 86.4483 97.2996 85.5413 98.199C85.1784 98.7387 84.4528 98.9185 83.9086 98.9185Z" fill="#A8BAA2"/>
<path d="M53.7953 99.2818C53.2511 99.2818 52.7069 99.1019 52.1627 98.5623L20.9615 67.6233C20.0545 66.7239 20.0545 65.2849 20.9615 64.3855C21.8685 63.4861 23.3197 63.4861 24.2268 64.3855L55.6094 95.5044C56.5164 96.4038 56.5164 97.8428 55.6094 98.7422C55.0652 99.1019 54.521 99.2818 53.7953 99.2818Z" fill="#A8BAA2"/>
<path d="M84.2751 68.3357C83.7309 68.3357 83.1866 68.1559 82.6424 67.6162L52.3482 37.3967C51.4412 36.4973 51.4412 35.0583 52.3482 34.1589C53.2552 33.2595 54.7065 33.2595 55.6135 34.1589L86.0891 64.3784C86.9961 65.2778 86.9961 66.7168 86.0891 67.6162C85.5449 67.976 85.0007 68.3357 84.2751 68.3357Z" fill="#A8BAA2"/>
<path d="M96.6076 86.6867H84.2722C83.0024 86.6867 82.0954 85.6075 82.0954 84.5282C82.0954 83.4489 83.1838 82.3697 84.2722 82.3697H94.4307V25.3483H37.1076V35.7813C37.1076 37.0404 36.0192 37.9398 34.9307 37.9398C33.8423 37.9398 32.7539 36.8605 32.7539 35.7813V23.1898C32.7539 21.9306 33.8423 21.0312 34.9307 21.0312H96.789C98.0588 21.0312 98.9658 22.1105 98.9658 23.1898V84.5282C98.9658 85.7873 97.8774 86.6867 96.6076 86.6867Z" fill="#A8BAA2"/>
</svg>
