<svg xmlns="http://www.w3.org/2000/svg" xmlns:xlink="http://www.w3.org/1999/xlink" id="Layer_1" x="0px" y="0px" width="300px" height="210px" viewBox="0 0 300 210" xml:space="preserve"><g>	<g>		<path d="M21.934,194.223h9.6v2.753H18.355v-27.413h3.578V194.223z"></path>		<path d="M56.551,195.463c-2.098-1.195-3.758-2.861-4.975-4.997c-1.221-2.137-1.83-4.54-1.83-7.215s0.609-5.086,1.83-7.222   c1.217-2.137,2.877-3.799,4.975-4.993c2.1-1.195,4.418-1.788,6.965-1.788c2.568,0,4.902,0.593,7,1.788   c2.098,1.194,3.75,2.85,4.957,4.975c1.205,2.126,1.809,4.536,1.809,7.24c0,2.7-0.604,5.112-1.809,7.236   c-1.207,2.121-2.859,3.78-4.957,4.976c-2.098,1.19-4.432,1.791-7,1.791C60.969,197.254,58.65,196.654,56.551,195.463z    M68.688,192.687c1.531-0.888,2.74-2.147,3.617-3.771c0.879-1.627,1.318-3.518,1.318-5.664c0-2.15-0.439-4.048-1.318-5.686   c-0.877-1.641-2.086-2.898-3.617-3.777c-1.533-0.878-3.26-1.317-5.172-1.317c-1.914,0-3.641,0.439-5.174,1.317   c-1.535,0.879-2.738,2.137-3.621,3.777c-0.877,1.638-1.318,3.535-1.318,5.686c0,2.146,0.441,4.037,1.318,5.664   c0.883,1.624,2.086,2.884,3.621,3.771c1.533,0.895,3.26,1.343,5.174,1.343C65.428,194.03,67.154,193.582,68.688,192.687z"></path>		<path d="M113.941,190.878h-11.959l-2.203,6.098h-3.773l9.912-27.261h4.129l9.873,27.261h-3.775L113.941,190.878z M112.955,188.087   l-4.992-13.964l-4.998,13.964H112.955z"></path>		<path d="M156.281,171.233c2.191,1.117,3.869,2.708,5.037,4.778c1.166,2.071,1.75,4.51,1.75,7.316c0,2.808-0.584,5.24-1.75,7.299   c-1.168,2.057-2.846,3.631-5.037,4.719c-2.189,1.086-4.775,1.631-7.766,1.631h-8.537v-27.413h8.537   C151.506,169.563,154.092,170.117,156.281,171.233z M156.596,191.333c1.877-1.931,2.814-4.598,2.814-8.006   s-0.938-6.069-2.814-7.981c-1.877-1.919-4.566-2.875-8.08-2.875h-4.957v21.752h4.957   C152.029,194.223,154.719,193.26,156.596,191.333z"></path>		<path fill="#EC1C24" d="M189.66,169.363v27.613h-6.729v-27.613H189.66z"></path>		<path fill="#EC1C24" d="M234.973,196.976h-6.727L217,179.944v17.032h-6.73v-27.613H217l11.246,17.112v-17.112h6.727V196.976z"></path>		<path fill="#EC1C24" d="M256.232,175.834c1.195-2.138,2.854-3.799,4.977-4.993c2.125-1.195,4.551-1.791,7.277-1.791   c3.305,0,6.092,0.799,8.359,2.399c2.27,1.598,3.77,3.815,4.502,6.647h-7.434c-0.496-0.918-1.211-1.619-2.141-2.105   c-0.936-0.486-2.031-0.727-3.287-0.727c-2.174,0-3.922,0.718-5.23,2.142c-1.313,1.432-1.967,3.338-1.967,5.726   c0,2.543,0.688,4.528,2.066,5.958c1.375,1.432,3.271,2.144,5.684,2.144c1.65,0,3.051-0.425,4.207-1.277   c1.152-0.854,1.98-2.067,2.479-3.639h-8.537v-4.917h14.633v6.255c-0.496,1.679-1.342,3.236-2.535,4.683   c-1.195,1.438-2.713,2.604-4.543,3.499c-1.838,0.889-3.908,1.337-6.217,1.337c-2.729,0-5.158-0.597-7.297-1.791   c-2.135-1.194-3.801-2.85-4.996-4.974c-1.193-2.127-1.787-4.553-1.787-7.277C254.445,180.403,255.039,177.97,256.232,175.834z"></path>	</g>	<path fill="#77787B" d="M163.709,45.139h-14.314L70.311,12.746l-0.748,0.713L38.16,45.139h-16h-2.682v18.026h22.504V50.503h25.924  v63.005h5.365V50.503h71.393v33.321h5.176V50.503h13.869V45.139z M36.617,57.801H24.844v-7.298h11.773V57.801z M45.639,45.139  l22.268-22.797v22.797H45.639z M73.271,19.766l61.953,25.373H73.271V19.766z"></path>	<path d="M283.412,148.318v-0.537h-5.367v0.537h-21.467v-0.537h-5.35v0.537h-7.125v-0.537h-5.35v0.537h-21.465v-0.537h-5.369v0.537  h-6.234v-0.537h-5.367v0.537h-21.449v-0.537h-5.367v0.537h-7.975V79.899h-32.184v68.419h-7.125V97.943h-32.18v50.375h-7.107  v-37.495H54.748v37.495H46.18v-23.893h-29.74v29.259h267.121v-5.366H283.412z M40.813,148.318H21.807v-18.525h19.006V148.318z   M81.564,148.318H60.115V116.19h21.449V148.318z M120.852,148.318H99.402V103.31h21.449V148.318z M160.16,148.318h-21.467V85.266  h21.467V148.318z"></path>	<path fill="#EC1C24" d="M251.225,39.215v108.559h5.367V44.583h21.449v103.19h5.365V39.215H251.225z M211.938,147.774h5.365V54.262  h21.449v93.512h5.367V48.895h-32.182V147.774z M173.611,147.774h5.273v-78.67h21.447v78.67h5.369V63.737h-32.09V147.774z"></path></g></svg>